<svg width="1200" height="900" viewBox="0 0 1200 900" fill="none" xmlns="http://www.w3.org/2000/svg">
  <rect width="1200" height="900" rx="36" fill="#EBEFE7"/>
  <rect x="88" y="92" width="1024" height="716" rx="28" fill="#FFF7EE"/>
  <rect x="170" y="214" width="320" height="420" rx="24" fill="#658356"/>
  <rect x="532" y="180" width="470" height="140" rx="20" fill="#BE531C"/>
  <rect x="532" y="360" width="470" height="280" rx="20" fill="#9CAF88"/>
  <circle cx="946" cy="260" r="72" fill="#FFF7EE" fill-opacity="0.85"/>
  <path d="M912 260C912 241.22 927.22 226 946 226C964.78 226 980 241.22 980 260C980 278.78 964.78 294 946 294C927.22 294 912 278.78 912 260Z" fill="#658356"/>
  <path d="M768 598C768 544.98 807.98 505 861 505H910C963.02 505 1003 544.98 1003 598V626H768V598Z" fill="#BE531C"/>
  <rect x="198" y="252" width="264" height="16" rx="8" fill="#FFF7EE" fill-opacity="0.85"/>
  <rect x="198" y="288" width="220" height="16" rx="8" fill="#FFF7EE" fill-opacity="0.7"/>
  <rect x="198" y="324" width="180" height="16" rx="8" fill="#FFF7EE" fill-opacity="0.7"/>
  <rect x="198" y="396" width="264" height="150" rx="18" fill="#FFF7EE" fill-opacity="0.85"/>
</svg>
